<?xml version="1.0" encoding="utf-8"?>
<!-- Generator: Adobe Illustrator 14.0.0, SVG Export Plug-In . SVG Version: 6.00 Build 43363)  -->
<!DOCTYPE svg PUBLIC "-//W3C//DTD SVG 1.1 Tiny//EN" "http://www.w3.org/Graphics/SVG/1.1/DTD/svg11-tiny.dtd">
<svg version="1.1" baseProfile="tiny" id="Layer_1" xmlns="http://www.w3.org/2000/svg" xmlns:xlink="http://www.w3.org/1999/xlink"
	 x="0px" y="0px" width="204.09px" height="153.07px" viewBox="0 0 204.09 153.07" xml:space="preserve">
<path fill="none" stroke="#000000" stroke-width="0.4338" d="M7.135,97.186c0-27.115,21.98-49.096,49.096-49.096
	c27.115,0,49.096,21.98,49.096,49.096s-21.981,49.095-49.096,49.095C29.115,146.281,7.135,124.301,7.135,97.186L7.135,97.186z"/>
<path fill="none" stroke="#000000" stroke-width="0.4338" d="M53.514,77.759c0-39.454,31.849-71.437,71.137-71.437
	c39.289,0,71.137,31.983,71.137,71.437c0,39.453-31.848,71.437-71.137,71.437C85.362,149.196,53.514,117.212,53.514,77.759
	L53.514,77.759z"/>
<path fill="none" stroke="#000000" stroke-width="1.9282" stroke-miterlimit="3.8637" d="M17.791,97.186
	c0-21.319,17.21-38.601,38.439-38.601c21.229,0,38.438,17.282,38.438,38.601c0,21.319-17.209,38.601-38.438,38.601
	C35.001,135.787,17.791,118.505,17.791,97.186L17.791,97.186z"/>
<polygon fill="#BEBEBE" stroke="#BEBEBE" stroke-width="0.4338" stroke-miterlimit="3.8637" points="105.494,88.424 121.768,72.077 
	137.094,72.077 126.244,82.975 147.962,82.975 147.962,93.872 126.244,93.874 137.094,104.772 121.768,104.772 105.494,88.424 "/>
<polygon fill="#BEBEBE" stroke="#BEBEBE" stroke-width="0.4338" stroke-miterlimit="3.8637" points="57.226,88.424 47.615,78.769 
	38.563,78.769 44.97,85.207 32.146,85.207 32.146,91.644 44.97,91.642 38.563,98.08 47.615,98.08 57.226,88.424 "/>
<path fill="none" stroke="#000000" stroke-width="11.5817" stroke-miterlimit="3.8637" d="M70.837,77.759
	c0-29.847,24.093-54.041,53.813-54.041s53.813,24.194,53.813,54.041c0,29.846-24.093,54.04-53.813,54.04
	S70.837,107.605,70.837,77.759L70.837,77.759z"/>
<path fill="none" stroke="#000000" stroke-width="1.9282" stroke-miterlimit="3.8637" d="M83.41,77.759
	c0-22.873,18.464-41.415,41.24-41.415s41.24,18.542,41.24,41.415c0,22.872-18.464,41.414-41.24,41.414S83.41,100.631,83.41,77.759
	L83.41,77.759z"/>
</svg>
